<?xml version="1.0" ?><!DOCTYPE svg  PUBLIC '-//W3C//DTD SVG 1.1//EN'  'http://www.w3.org/Graphics/SVG/1.1/DTD/svg11.dtd'><svg enable-background="new 0 0 32 32" height="32px" version="1.1" viewBox="0 0 32 32" width="32px" xml:space="preserve" xmlns="http://www.w3.org/2000/svg" xmlns:xlink="http://www.w3.org/1999/xlink"><g id="peaceful_x2C__peace_x2C__symbol_x2C__hand_x2C__banner"><g id="sponsor_x2C__investment_x2C__loan_x2C__money_1_"><g id="XMLID_120_"><path d="M28.5,2.5v14c0,0.552-0.448,1-1,1h-18c-0.552,0-1-0.448-1-1v-14c0-0.552,0.448-1,1-1h18     C28.052,1.5,28.5,1.948,28.5,2.5z" fill="#55FB9B"/></g><g id="XMLID_112_"><g id="XMLID_119_"><path d="M19.027,21.233C19.012,21.32,19,21.409,19,21.5v0.875h1.85C21,22.451,22.2,22.5,22.5,22.5      c0,0,1,0.094,1,1c0,0.553-0.447,1-1,1c0.553,0,1,0.447,1,1s-0.947,1-1.5,1c0.553,0,1,0.447,1,1s-0.447,1-1,1      c0.553,0,0.5,0.447,0.5,1s-0.447,1-1,1c0,0-5.582,0-6.5,0c-1.502,0-2.543-1-3.5-1v-7.004c3.219,0,2.75-1.996,5-1.996      C18.395,20.5,18.65,20.837,19.027,21.233z" fill="#FFE0B2"/></g><g id="XMLID_118_"><path d="M22.413,27.901c-0.126,0.058-0.265,0.095-0.413,0.095c0.109,0,0.209,0.03,0.308,0.062      C22.344,28.006,22.388,27.96,22.413,27.901z" fill="#FFFFFF"/></g><g id="XMLID_117_"><path d="M12,23.992c2.875,0,2.75-2.496,6-2.496c0.487,0,0.798,0.056,1,0.145V21.5      c0-0.091,0.012-0.18,0.027-0.267C18.65,20.837,18.395,20.5,16.5,20.5c-2.25,0-1.781,1.996-5,1.996V29.5      c0.163,0,0.33,0.036,0.5,0.084V23.992z" fill="#FFFFFF"/></g><g id="XMLID_116_"><path d="M22,29.996c0.109,0,0.209,0.03,0.308,0.062c0.036-0.052,0.08-0.098,0.105-0.157      C22.287,29.959,22.148,29.996,22,29.996z" fill="#FFFFFF"/></g><g id="XMLID_115_"><rect fill="#80D8FF" height="9" width="10.5" x="1" y="21.5"/></g><g id="XMLID_114_"><rect fill="#73C2E6" height="1.5" width="10.5" x="1" y="29"/></g><g id="XMLID_113_"><rect fill="#FFFFFF" height="1.5" width="10.5" x="1" y="21.5"/></g></g><g id="XMLID_111_"><rect fill="#FFFFFF" height="4.996" width="2" x="17.5" y="17.5"/></g></g><g id="XMLID_1055_"><g id="XMLID_95_"><g><g id="XMLID_26_"><path d="M22.5,25c-0.276,0-0.5-0.224-0.5-0.5s0.224-0.5,0.5-0.5c0.276,0,0.5-0.224,0.5-0.5S22.776,23,22.5,23       H17c-0.276,0-0.5-0.224-0.5-0.5S16.724,22,17,22h5.5c0.827,0,1.5,0.673,1.5,1.5S23.327,25,22.5,25z" fill="#455A64"/></g><g id="XMLID_24_"><path d="M21.5,31H15c-0.969,0-1.596-0.36-2.1-0.65C12.56,30.154,12.292,30,12,30c-0.276,0-0.5-0.224-0.5-0.5       S11.724,29,12,29c0.558,0,0.985,0.246,1.398,0.483C13.861,29.749,14.298,30,15,30h6.5c0.276,0,0.5-0.224,0.5-0.5       S21.776,29,21.5,29h-0.017c-0.276,0-0.492-0.224-0.492-0.5s0.215-0.5,0.492-0.5H22c0.276,0,0.5-0.224,0.5-0.5S22.276,27,22,27       c-0.276,0-0.5-0.224-0.5-0.5S21.724,26,22,26h0.5c0.276,0,0.5-0.224,0.5-0.5S22.776,25,22.5,25c-0.276,0-0.5-0.224-0.5-0.5       s0.224-0.5,0.5-0.5c0.827,0,1.5,0.673,1.5,1.5c0,0.53-0.277,0.997-0.693,1.264C23.43,26.981,23.5,27.233,23.5,27.5       c0,0.53-0.277,0.997-0.693,1.264C22.93,28.981,23,29.233,23,29.5C23,30.327,22.327,31,21.5,31z" fill="#455A64"/></g><g id="XMLID_23_"><path d="M12.5,23H12c-0.276,0-0.5-0.224-0.5-0.5S11.724,22,12,22h0.5c0.59,0,0.995-0.34,1.507-0.771       c0.488-0.41,1.041-0.874,1.854-1.11c0.269-0.079,0.543,0.076,0.62,0.34c0.077,0.266-0.075,0.543-0.34,0.62       c-0.61,0.177-1.038,0.536-1.49,0.916C14.062,22.489,13.454,23,12.5,23z" fill="#455A64"/></g><g id="XMLID_22_"><path d="M11.5,31h-10C1.224,31,1,30.776,1,30.5S1.224,30,1.5,30H11v-8H1.5C1.224,22,1,21.776,1,21.5       S1.224,21,1.5,21h10c0.276,0,0.5,0.224,0.5,0.5v9C12,30.776,11.776,31,11.5,31z" fill="#455A64"/></g></g><g><g id="XMLID_21_"><path d="M22.5,25c-0.276,0-0.5-0.224-0.5-0.5s0.224-0.5,0.5-0.5c0.276,0,0.5-0.224,0.5-0.5S22.776,23,22.5,23       H17c-0.276,0-0.5-0.224-0.5-0.5S16.724,22,17,22h5.5c0.827,0,1.5,0.673,1.5,1.5S23.327,25,22.5,25z" fill="#455A64"/></g><g id="XMLID_20_"><path d="M21.5,31H15c-0.969,0-1.596-0.36-2.1-0.65C12.56,30.154,12.292,30,12,30c-0.276,0-0.5-0.224-0.5-0.5       S11.724,29,12,29c0.558,0,0.985,0.246,1.398,0.483C13.861,29.749,14.298,30,15,30h6.5c0.276,0,0.5-0.224,0.5-0.5       S21.776,29,21.5,29h-0.017c-0.276,0-0.492-0.224-0.492-0.5s0.215-0.5,0.492-0.5H22c0.276,0,0.5-0.224,0.5-0.5S22.276,27,22,27       c-0.276,0-0.5-0.224-0.5-0.5S21.724,26,22,26h0.5c0.276,0,0.5-0.224,0.5-0.5S22.776,25,22.5,25c-0.276,0-0.5-0.224-0.5-0.5       s0.224-0.5,0.5-0.5c0.827,0,1.5,0.673,1.5,1.5c0,0.53-0.277,0.997-0.693,1.264C23.43,26.981,23.5,27.233,23.5,27.5       c0,0.53-0.277,0.997-0.693,1.264C22.93,28.981,23,29.233,23,29.5C23,30.327,22.327,31,21.5,31z" fill="#455A64"/></g><g id="XMLID_18_"><path d="M12.5,23H12c-0.276,0-0.5-0.224-0.5-0.5S11.724,22,12,22h0.5c0.59,0,0.995-0.34,1.507-0.771       c0.488-0.41,1.041-0.874,1.854-1.11c0.269-0.079,0.543,0.076,0.62,0.34c0.077,0.266-0.075,0.543-0.34,0.62       c-0.61,0.177-1.038,0.536-1.49,0.916C14.062,22.489,13.454,23,12.5,23z" fill="#455A64"/></g><g id="XMLID_17_"><path d="M11.5,31h-10C1.224,31,1,30.776,1,30.5S1.224,30,1.5,30H11v-8H1.5C1.224,22,1,21.776,1,21.5       S1.224,21,1.5,21h10c0.276,0,0.5,0.224,0.5,0.5v9C12,30.776,11.776,31,11.5,31z" fill="#455A64"/></g></g></g><g id="XMLID_94_"><path d="M27.5,18h-18C8.673,18,8,17.327,8,16.5v-14C8,1.673,8.673,1,9.5,1h18C28.327,1,29,1.673,29,2.5v14     C29,17.327,28.327,18,27.5,18z M9.5,2C9.224,2,9,2.224,9,2.5v14C9,16.776,9.224,17,9.5,17h18c0.276,0,0.5-0.224,0.5-0.5v-14     C28,2.224,27.776,2,27.5,2H9.5z" fill="#455A64"/></g><g id="XMLID_93_"><path d="M17.5,22.996c-0.276,0-0.5-0.224-0.5-0.5V17.5c0-0.276,0.224-0.5,0.5-0.5s0.5,0.224,0.5,0.5v4.996     C18,22.772,17.776,22.996,17.5,22.996z" fill="#455A64"/></g><g id="XMLID_92_"><path d="M19.5,22.996c-0.276,0-0.5-0.224-0.5-0.5V17.5c0-0.276,0.224-0.5,0.5-0.5s0.5,0.224,0.5,0.5v4.996     C20,22.772,19.776,22.996,19.5,22.996z" fill="#455A64"/></g><g id="XMLID_80_"><path d="M18.5,15c-3.033,0-5.5-2.467-5.5-5.5S15.467,4,18.5,4S24,6.467,24,9.5S21.533,15,18.5,15z M18.5,5     C16.019,5,14,7.019,14,9.5s2.019,4.5,4.5,4.5S23,11.981,23,9.5S20.981,5,18.5,5z" fill="#455A64"/></g><g id="XMLID_83_"><path d="M22.5,13c-0.104,0-0.209-0.033-0.299-0.1l-4-3c-0.221-0.166-0.266-0.479-0.1-0.7     c0.167-0.222,0.479-0.266,0.7-0.1l4,3c0.221,0.166,0.266,0.479,0.1,0.7C22.802,12.931,22.652,13,22.5,13z" fill="#455A64"/></g><g id="XMLID_81_"><path d="M14.5,13c-0.152,0-0.302-0.069-0.4-0.2c-0.166-0.221-0.121-0.534,0.1-0.7l4-3     c0.22-0.166,0.534-0.122,0.7,0.1c0.166,0.221,0.121,0.534-0.1,0.7l-4,3C14.71,12.967,14.605,13,14.5,13z" fill="#455A64"/></g><g id="XMLID_82_"><path d="M18.5,15c-0.276,0-0.5-0.224-0.5-0.5v-10C18,4.224,18.224,4,18.5,4S19,4.224,19,4.5v10     C19,14.776,18.776,15,18.5,15z" fill="#455A64"/></g></g></g></svg>